<?xml version="1.0" encoding="UTF-8"?>
<svg width="48px" height="48px" viewBox="0 0 48 48" version="1.1" xmlns="http://www.w3.org/2000/svg" xmlns:xlink="http://www.w3.org/1999/xlink">
    <!-- Generator: Sketch 51.1 (57501) - http://www.bohemiancoding.com/sketch -->
    <title>bookmark_selected</title>
    <desc>Created with Sketch.</desc>
    <defs></defs>
    <g id="bookmark_selected" stroke="none" stroke-width="1" fill="none" fill-rule="evenodd">
        <g id="dropDownIcon" fill-rule="nonzero">
            <rect id="Rectangle-8" x="0" y="0" width="48" height="48"></rect>
        </g>
        <g id="Glyphs-/-Navigation-or-Toolbar-/-Placeholder-1-on-Light-Copy" transform="translate(10.000000, 10.000000)" fill="#007AFF" stroke="#007AFF">
            <path d="M25.0394466,10.8783923 L25.0275475,10.8785339 L18.0173666,10.8785254 C17.3750522,10.8822682 16.810071,10.4543992 16.6097503,9.82438498 L14.4512423,2.85643447 C14.381065,2.63889404 14.1978769,2.5 14,2.5 C13.8021231,2.5 13.618935,2.63889404 13.5505134,2.85088148 L11.3891315,9.82794757 C11.189929,10.4543992 10.6249478,10.8822682 9.98554687,10.8785339 L2.96055338,10.8783923 C2.77058709,10.8738702 2.59258678,11.006605 2.52607524,11.2174131 C2.45651638,11.4378796 2.53010872,11.6798193 2.69888459,11.8086002 L8.3878647,16.1447049 C8.89410823,16.5261039 9.10431901,17.2010386 8.91505438,17.817115 L6.74742613,24.8167189 C6.69775125,24.9832158 6.72671074,25.1655227 6.82297712,25.3025637 C6.91325703,25.4310826 7.05004887,25.5024185 7.19735451,25.4998655 C7.29199528,25.4993975 7.38512936,25.4666935 7.46898698,25.4012402 L13.1211571,21.0938326 C13.6447077,20.6966815 14.3552923,20.6966815 14.8797276,21.0945053 L20.5357238,25.4048747 C20.6148706,25.4666935 20.7080047,25.4993975 20.8089733,25.4999368 C20.9499511,25.5024185 21.086743,25.4310826 21.1770229,25.3025637 C21.2732893,25.1655227 21.3022488,24.9832158 21.2540811,24.8216767 L19.0846136,17.8160386 C18.895681,17.2010386 19.1058918,16.5261039 19.6099073,16.1463932 L25.3009052,11.8087605 C25.4698913,11.6798193 25.5434836,11.4378796 25.4739248,11.2174131 C25.4074132,11.006605 25.2294129,10.8738702 25.0394466,10.8783923 Z" id="Favorites"></path>
        </g>
    </g>
</svg>