<?xml version="1.0" encoding="UTF-8"?>
<svg width="48px" height="48px" viewBox="0 0 48 48" version="1.1" xmlns="http://www.w3.org/2000/svg" xmlns:xlink="http://www.w3.org/1999/xlink">
    <!-- Generator: Sketch 51.1 (57501) - http://www.bohemiancoding.com/sketch -->
    <title>bookmark_unselected</title>
    <desc>Created with Sketch.</desc>
    <defs></defs>
    <g id="bookmark_unselected" stroke="none" stroke-width="1" fill="none" fill-rule="evenodd">
        <g id="dropDownIcon" fill-rule="nonzero">
            <rect id="Rectangle-8" x="0" y="0" width="48" height="48"></rect>
        </g>
        <g id="Glyphs-/-Navigation-or-Toolbar-/-Placeholder-1-on-Light" transform="translate(12.000000, 12.000000)" stroke="#007AFF" stroke-width="1.4">
            <path d="M23.0442063,9.07833566 L23.0275475,9.07853391 L16.018532,9.07852203 C15.2870472,9.08278446 14.6455342,8.59695667 14.418707,7.88356668 L12.2609013,0.917837367 C12.2169064,0.781458837 12.1094699,0.7 12,0.7 C11.8905301,0.7 11.7830936,0.781458837 11.7415567,0.910063183 L9.57972746,7.8885543 C9.35446584,8.59695667 8.71295279,9.08278446 7.98554687,9.07853391 L0.955793725,9.07833566 C0.856516655,9.07597237 0.75700726,9.15017654 0.716807202,9.27759045 C0.672340907,9.41852619 0.719180469,9.5725144 0.820122138,9.64953587 L6.50821103,13.9849652 C7.08244767,14.4175896 7.31995545,15.1801682 7.10610342,15.876278 L4.93907804,22.8738988 C4.90682222,22.9820117 4.92570122,23.1008595 4.98663384,23.1876008 C5.03918541,23.2624111 5.11369475,23.3012671 5.19636554,23.2998679 C5.24646858,23.2996202 5.29671086,23.2819776 5.34776064,23.2421673 L11.0002847,18.9344907 C11.5952994,18.4831288 12.4047006,18.4831288 13.000954,18.9354325 L18.6588345,23.2472557 C18.7032891,23.2819776 18.7535314,23.2996202 18.8124934,23.2999678 C18.8863053,23.3012671 18.9608146,23.2624111 19.0133662,23.1876008 C19.0742988,23.1008595 19.0931778,22.9820117 19.063032,22.8808397 L16.8934318,15.8747711 C16.6800446,15.1801682 16.9175523,14.4175896 17.4886697,13.9873289 L23.1795835,9.64976034 C23.2808195,9.5725144 23.3276591,9.41852619 23.2831928,9.27759045 C23.2429927,9.15017654 23.1434833,9.07597237 23.0442063,9.07833566 Z" id="Favorites"></path>
        </g>
    </g>
</svg>