<svg id="Layer_1" data-name="Layer 1" xmlns="http://www.w3.org/2000/svg" viewBox="0 0 129 129"><defs><style>.cls-1{fill:#FFFFFF;}</style></defs><title>NextArrow_Icon</title><path class="cls-1" d="M122.6,64.5a58.1,58.1,0,1,0-58.1,58.1A58.21,58.21,0,0,0,122.6,64.5Zm-8.2,0A49.9,49.9,0,1,1,64.5,14.6,50,50,0,0,1,114.4,64.5Z"/><path class="cls-1" d="M77.9,87.7,54.4,64.2,77.9,40.7a4.1,4.1,0,1,0-5.8-5.8L45.7,61.3a4.1,4.1,0,0,0,0,5.8L72.1,93.5A4.18,4.18,0,0,0,75,94.7a4,4,0,0,0,2.9-1.2A4.1,4.1,0,0,0,77.9,87.7Z"/></svg>